<svg width="50" height="50" viewBox="0 0 50 50" fill="none" xmlns="http://www.w3.org/2000/svg">
<rect width="50" height="50" fill="#FF7900"/>
<path fill-rule="evenodd" clip-rule="evenodd" d="M44.3081 36.4067H45.0264V36.1003H43.2095V36.4067H43.9278V38.3961H44.3081V36.4067ZM47.6408 38.3961H48.0193V36.1074H47.4401L46.7658 37.8503L46.081 36.1074H45.4964V38.3961H45.875V36.4789H45.8855L46.6373 38.3961H46.8767L47.6285 36.4789H47.6408V38.3961Z" fill="white"/>
<path fill-rule="evenodd" clip-rule="evenodd" d="M37.8733 42.206C37.8733 44.4912 39.0951 45.8063 41.1427 45.8063C42.5705 45.8063 43.6303 45.2887 44.2201 44.3063L42.8803 43.5634C42.4525 44.1655 41.9965 44.4437 41.3046 44.4437C40.2289 44.4437 39.6832 43.7799 39.6691 42.4648H44.2941C44.2941 42.4093 44.2975 42.3521 44.3009 42.294C44.3045 42.2342 44.3082 42.1734 44.3082 42.1127C44.3082 39.8539 43.1198 38.5775 41.1127 38.5775C39.1057 38.5775 37.8733 39.9208 37.8733 42.206ZM41.1127 39.8134C41.9842 39.8134 42.5124 40.3591 42.5124 41.2887H39.7043C39.7729 40.3415 40.2888 39.8134 41.1127 39.8134Z" fill="white"/>
<path fill-rule="evenodd" clip-rule="evenodd" d="M36.7712 45.287V38.7113L35.2324 38.7148L35.0895 39.5085C34.9476 39.1683 34.4217 38.5845 33.0863 38.5845C31.6092 38.5863 30.2941 39.8856 30.2941 42.2078C30.2941 44.5564 31.5705 45.6796 33.1884 45.6796C34.2501 45.6796 34.692 45.1866 34.9824 44.669L35.0071 44.6937V45.5018C35.0071 46.5881 34.5476 47.0423 33.5986 47.0423C32.5758 47.0423 32.368 46.7007 32.2923 46.3592L30.4877 46.6497C30.7413 47.8433 32.0071 48.3803 33.3715 48.3803C36.6832 48.3592 36.7712 46.449 36.7712 45.287ZM35.0141 41.8469C35.0141 42.7694 34.8979 44.1796 33.5106 44.1902C32.1691 44.199 32.1092 42.7817 32.1092 41.9226C32.1092 40.3574 32.8416 39.8785 33.4983 39.8785C34.486 39.8785 35.0141 40.7624 35.0141 41.8469Z" fill="white"/>
<path d="M22.8064 38.9208L24.3187 38.7113L24.4842 39.5352C25.3381 38.9102 26.0159 38.5775 26.8698 38.5775C28.2994 38.5775 29.0353 39.3363 29.0353 40.838V45.6743H27.2096V41.1567C27.2096 40.3063 26.9877 39.9243 26.3293 39.9243C25.7835 39.9243 25.2395 40.176 24.6198 40.6954V45.6778H22.8064V38.9208Z" fill="white"/>
<path fill-rule="evenodd" clip-rule="evenodd" d="M17.2888 45.7605C18.1034 45.7636 18.9004 45.5233 19.5775 45.0704L19.7448 45.6813H21.3645V40.6461C21.3645 39.3697 20.3575 38.5862 18.5476 38.5862C17.2213 38.5851 16.2342 39.0369 15.5863 39.9419L16.8187 40.6461C17.2236 40.1261 17.8519 39.83 18.5106 39.8486C19.2184 39.8486 19.6022 40.1408 19.6022 40.6461V41.0317C16.6568 41.3644 15.2272 42.1884 15.2272 43.7429C15.2272 44.8979 15.993 45.7605 17.2888 45.7605ZM17.8398 44.5123C17.3106 44.5123 17.0166 44.0767 17.0159 43.6108C17.0171 42.7898 17.827 42.3519 19.5335 42.1355V43.7799C18.9737 44.2729 18.4156 44.5123 17.8398 44.5123ZM17.0159 43.6108C17.0159 43.6103 17.0159 43.6097 17.0159 43.6091V43.6127C17.0159 43.612 17.0159 43.6114 17.0159 43.6108Z" fill="white"/>
<path d="M10.8328 38.7324H12.5704V39.5493C13.0483 38.9787 13.741 38.6313 14.4842 38.5898C14.563 38.5878 14.6419 38.5919 14.7201 38.6021V40.3169H14.6321C13.8363 40.3169 12.9666 40.4402 12.6954 41.0581V45.6778H10.8328V38.7324Z" fill="white"/>
<path fill-rule="evenodd" clip-rule="evenodd" d="M2.70593 42.2165C2.70593 44.7306 4.33445 45.882 6.14255 45.882C7.94889 45.882 9.57917 44.7342 9.57917 42.2218C9.57917 39.7095 7.95065 38.5563 6.14255 38.5563C4.33445 38.5563 2.70593 39.7025 2.70593 42.2165ZM4.52459 42.2095C4.52459 41.3292 4.77812 40.0968 6.14255 40.0968C7.50699 40.0968 7.76051 41.3204 7.76051 42.2095C7.76051 43.0986 7.50699 44.331 6.14255 44.331C4.77812 44.331 4.52459 43.0898 4.52459 42.2095Z" fill="white"/>
</svg>
